<svg width="258" height="51" viewBox="0 0 258 51" fill="none" xmlns="http://www.w3.org/2000/svg">
<path d="M13.3431 50.0371L30.4128 4H17.3489L0.278381 50.0371H13.3431Z" fill="url(#paint0_linear_12_45)"/>
<path d="M27.2752 29.4144C15.3562 31.6216 5.40808 39.4451 0.279358 50.0373H13.2967C17.5828 44.5826 23.9574 40.8501 31.2178 40.0444L27.2752 29.4144Z" fill="url(#paint1_linear_12_45)"/>
<path d="M30.7826 40.1831L17.3663 4.00098H30.9152L47.9849 50.0381H44.9465C38.629 50.0372 32.9792 46.1061 30.7826 40.1831Z" fill="url(#paint2_linear_12_45)"/>
<path d="M49.5183 40.1831L36.1021 4.00098H40.9409C46.1768 4.00098 50.8592 7.25903 52.6798 12.1681L66.7216 50.0381H63.6832C57.3648 50.0372 51.7141 46.1061 49.5183 40.1831Z" fill="url(#paint3_linear_12_45)"/>
<path d="M74.5468 29L83.9068 8H88.7068L98.0968 29H92.9968L85.3168 10.46H87.2368L79.5268 29H74.5468ZM79.2268 24.5L80.5168 20.81H91.3168L92.6368 24.5H79.2268ZM109.846 29V25.85L109.546 25.16V19.52C109.546 18.52 109.236 17.74 108.616 17.18C108.016 16.62 107.086 16.34 105.826 16.34C104.966 16.34 104.116 16.48 103.276 16.76C102.456 17.02 101.756 17.38 101.176 17.84L99.4956 14.57C100.376 13.95 101.436 13.47 102.676 13.13C103.916 12.79 105.176 12.62 106.456 12.62C108.916 12.62 110.826 13.2 112.186 14.36C113.546 15.52 114.226 17.33 114.226 19.79V29H109.846ZM104.926 29.24C103.666 29.24 102.586 29.03 101.686 28.61C100.786 28.17 100.096 27.58 99.6156 26.84C99.1356 26.1 98.8956 25.27 98.8956 24.35C98.8956 23.39 99.1256 22.55 99.5856 21.83C100.066 21.11 100.816 20.55 101.836 20.15C102.856 19.73 104.186 19.52 105.826 19.52H110.116V22.25H106.336C105.236 22.25 104.476 22.43 104.056 22.79C103.656 23.15 103.456 23.6 103.456 24.14C103.456 24.74 103.686 25.22 104.146 25.58C104.626 25.92 105.276 26.09 106.096 26.09C106.876 26.09 107.576 25.91 108.196 25.55C108.816 25.17 109.266 24.62 109.546 23.9L110.266 26.06C109.926 27.1 109.306 27.89 108.406 28.43C107.506 28.97 106.346 29.24 104.926 29.24ZM126.588 29.24C124.748 29.24 123.128 28.88 121.728 28.16C120.348 27.44 119.278 26.46 118.518 25.22C117.758 23.96 117.378 22.53 117.378 20.93C117.378 19.31 117.748 17.88 118.488 16.64C119.248 15.38 120.278 14.4 121.578 13.7C122.878 12.98 124.348 12.62 125.988 12.62C127.568 12.62 128.988 12.96 130.248 13.64C131.528 14.3 132.538 15.26 133.278 16.52C134.018 17.76 134.388 19.25 134.388 20.99C134.388 21.17 134.378 21.38 134.358 21.62C134.338 21.84 134.318 22.05 134.298 22.25H121.188V19.52H131.838L130.038 20.33C130.038 19.49 129.868 18.76 129.528 18.14C129.188 17.52 128.718 17.04 128.118 16.7C127.518 16.34 126.818 16.16 126.018 16.16C125.218 16.16 124.508 16.34 123.888 16.7C123.288 17.04 122.818 17.53 122.478 18.17C122.138 18.79 121.968 19.53 121.968 20.39V21.11C121.968 21.99 122.158 22.77 122.538 23.45C122.938 24.11 123.488 24.62 124.188 24.98C124.908 25.32 125.748 25.49 126.708 25.49C127.568 25.49 128.318 25.36 128.958 25.1C129.618 24.84 130.218 24.45 130.758 23.93L133.248 26.63C132.508 27.47 131.578 28.12 130.458 28.58C129.338 29.02 128.048 29.24 126.588 29.24ZM137.504 29V12.86H141.974V17.42L141.344 16.1C141.824 14.96 142.594 14.1 143.654 13.52C144.714 12.92 146.004 12.62 147.524 12.62V16.94C147.324 16.92 147.144 16.91 146.984 16.91C146.824 16.89 146.654 16.88 146.474 16.88C145.194 16.88 144.154 17.25 143.354 17.99C142.574 18.71 142.184 19.84 142.184 21.38V29H137.504ZM150.336 29V12.86H155.016V29H150.336ZM152.676 10.61C151.816 10.61 151.116 10.36 150.576 9.86C150.036 9.36 149.766 8.74 149.766 8C149.766 7.26 150.036 6.64 150.576 6.14C151.116 5.64 151.816 5.39 152.676 5.39C153.536 5.39 154.236 5.63 154.776 6.11C155.316 6.57 155.586 7.17 155.586 7.91C155.586 8.69 155.316 9.34 154.776 9.86C154.256 10.36 153.556 10.61 152.676 10.61ZM167.04 29.24C165.32 29.24 163.79 28.88 162.45 28.16C161.13 27.44 160.08 26.46 159.3 25.22C158.54 23.96 158.16 22.53 158.16 20.93C158.16 19.31 158.54 17.88 159.3 16.64C160.08 15.38 161.13 14.4 162.45 13.7C163.79 12.98 165.32 12.62 167.04 12.62C168.74 12.62 170.26 12.98 171.6 13.7C172.94 14.4 173.99 15.37 174.75 16.61C175.51 17.85 175.89 19.29 175.89 20.93C175.89 22.53 175.51 23.96 174.75 25.22C173.99 26.46 172.94 27.44 171.6 28.16C170.26 28.88 168.74 29.24 167.04 29.24ZM167.04 25.4C167.82 25.4 168.52 25.22 169.14 24.86C169.76 24.5 170.25 23.99 170.61 23.33C170.97 22.65 171.15 21.85 171.15 20.93C171.15 19.99 170.97 19.19 170.61 18.53C170.25 17.87 169.76 17.36 169.14 17C168.52 16.64 167.82 16.46 167.04 16.46C166.26 16.46 165.56 16.64 164.94 17C164.32 17.36 163.82 17.87 163.44 18.53C163.08 19.19 162.9 19.99 162.9 20.93C162.9 21.85 163.08 22.65 163.44 23.33C163.82 23.99 164.32 24.5 164.94 24.86C165.56 25.22 166.26 25.4 167.04 25.4ZM184.448 29.24C183.068 29.24 181.738 29.08 180.458 28.76C179.198 28.42 178.198 28 177.458 27.5L179.018 24.14C179.758 24.6 180.628 24.98 181.628 25.28C182.648 25.56 183.648 25.7 184.628 25.7C185.708 25.7 186.468 25.57 186.908 25.31C187.368 25.05 187.598 24.69 187.598 24.23C187.598 23.85 187.418 23.57 187.058 23.39C186.718 23.19 186.258 23.04 185.678 22.94C185.098 22.84 184.458 22.74 183.758 22.64C183.078 22.54 182.388 22.41 181.688 22.25C180.988 22.07 180.348 21.81 179.768 21.47C179.188 21.13 178.718 20.67 178.358 20.09C178.018 19.51 177.848 18.76 177.848 17.84C177.848 16.82 178.138 15.92 178.718 15.14C179.318 14.36 180.178 13.75 181.298 13.31C182.418 12.85 183.758 12.62 185.318 12.62C186.418 12.62 187.538 12.74 188.678 12.98C189.818 13.22 190.768 13.57 191.528 14.03L189.968 17.36C189.188 16.9 188.398 16.59 187.598 16.43C186.818 16.25 186.058 16.16 185.318 16.16C184.278 16.16 183.518 16.3 183.038 16.58C182.558 16.86 182.318 17.22 182.318 17.66C182.318 18.06 182.488 18.36 182.828 18.56C183.188 18.76 183.658 18.92 184.238 19.04C184.818 19.16 185.448 19.27 186.128 19.37C186.828 19.45 187.528 19.58 188.228 19.76C188.928 19.94 189.558 20.2 190.118 20.54C190.698 20.86 191.168 21.31 191.528 21.89C191.888 22.45 192.068 23.19 192.068 24.11C192.068 25.11 191.768 26 191.168 26.78C190.568 27.54 189.698 28.14 188.558 28.58C187.438 29.02 186.068 29.24 184.448 29.24ZM202.635 29.24C200.915 29.24 199.385 28.88 198.045 28.16C196.725 27.44 195.675 26.46 194.895 25.22C194.135 23.96 193.755 22.53 193.755 20.93C193.755 19.31 194.135 17.88 194.895 16.64C195.675 15.38 196.725 14.4 198.045 13.7C199.385 12.98 200.915 12.62 202.635 12.62C204.335 12.62 205.855 12.98 207.195 13.7C208.535 14.4 209.585 15.37 210.345 16.61C211.105 17.85 211.485 19.29 211.485 20.93C211.485 22.53 211.105 23.96 210.345 25.22C209.585 26.46 208.535 27.44 207.195 28.16C205.855 28.88 204.335 29.24 202.635 29.24ZM202.635 25.4C203.415 25.4 204.115 25.22 204.735 24.86C205.355 24.5 205.845 23.99 206.205 23.33C206.565 22.65 206.745 21.85 206.745 20.93C206.745 19.99 206.565 19.19 206.205 18.53C205.845 17.87 205.355 17.36 204.735 17C204.115 16.64 203.415 16.46 202.635 16.46C201.855 16.46 201.155 16.64 200.535 17C199.915 17.36 199.415 17.87 199.035 18.53C198.675 19.19 198.495 19.99 198.495 20.93C198.495 21.85 198.675 22.65 199.035 23.33C199.415 23.99 199.915 24.5 200.535 24.86C201.155 25.22 201.855 25.4 202.635 25.4ZM215.184 29V12.5C215.184 10.68 215.724 9.23 216.804 8.15C217.884 7.05 219.424 6.5 221.424 6.5C222.104 6.5 222.754 6.57 223.374 6.71C224.014 6.85 224.554 7.07 224.994 7.37L223.764 10.76C223.504 10.58 223.214 10.44 222.894 10.34C222.574 10.24 222.234 10.19 221.874 10.19C221.194 10.19 220.664 10.39 220.284 10.79C219.924 11.17 219.744 11.75 219.744 12.53V14.03L219.864 16.04V29H215.184ZM212.694 16.82V13.22H223.884V16.82H212.694ZM232.815 29.24C230.915 29.24 229.435 28.76 228.375 27.8C227.315 26.82 226.785 25.37 226.785 23.45V9.29H231.465V23.39C231.465 24.07 231.645 24.6 232.005 24.98C232.365 25.34 232.855 25.52 233.475 25.52C234.215 25.52 234.845 25.32 235.365 24.92L236.625 28.22C236.145 28.56 235.565 28.82 234.885 29C234.225 29.16 233.535 29.24 232.815 29.24ZM224.295 16.82V13.22H235.485V16.82H224.295Z" fill="white"/>
<path d="M76.4703 39.6152H80.8667V40.1372H76.4703V39.6152ZM76.5399 43.4664H81.5511V44H75.9483V35.88H81.3771V36.4136H76.5399V43.4664ZM91.0624 37.8984C91.5496 37.8984 91.9711 37.9951 92.3268 38.1884C92.6903 38.374 92.9726 38.6601 93.1736 39.0468C93.3747 39.4257 93.4752 39.8975 93.4752 40.462V44H92.8952V40.5084C92.8952 39.8279 92.729 39.3097 92.3964 38.954C92.0639 38.5983 91.5999 38.4204 91.0044 38.4204C90.5482 38.4204 90.1538 38.5171 89.8212 38.7104C89.4887 38.9037 89.2335 39.1744 89.0556 39.5224C88.8778 39.8704 88.7888 40.288 88.7888 40.7752V44H88.2088V40.5084C88.2088 39.8279 88.0426 39.3097 87.71 38.954C87.3775 38.5983 86.9135 38.4204 86.318 38.4204C85.8618 38.4204 85.4674 38.5171 85.1348 38.7104C84.8023 38.9037 84.5471 39.1744 84.3692 39.5224C84.1914 39.8704 84.1024 40.288 84.1024 40.7752V44H83.5224V37.9448H84.0792V39.6152L83.998 39.4296C84.1759 38.9579 84.4736 38.5867 84.8912 38.316C85.3088 38.0376 85.8115 37.8984 86.3992 37.8984C87.0024 37.8984 87.509 38.0531 87.9188 38.3624C88.3364 38.664 88.5994 39.1164 88.7076 39.7196L88.5104 39.6384C88.6728 39.1203 88.9783 38.7027 89.4268 38.3856C89.8754 38.0608 90.4206 37.8984 91.0624 37.8984ZM98.9093 44.0464C98.3757 44.0464 97.8924 43.9227 97.4593 43.6752C97.034 43.4277 96.6937 43.0759 96.4385 42.6196C96.191 42.1556 96.0673 41.6065 96.0673 40.9724C96.0673 40.3383 96.191 39.7931 96.4385 39.3368C96.6937 38.8728 97.034 38.5171 97.4593 38.2696C97.8924 38.0221 98.3757 37.8984 98.9093 37.8984C99.4816 37.8984 99.992 38.0299 100.441 38.2928C100.897 38.548 101.253 38.9076 101.508 39.3716C101.771 39.8356 101.902 40.3692 101.902 40.9724C101.902 41.5756 101.771 42.1092 101.508 42.5732C101.253 43.0372 100.897 43.4007 100.441 43.6636C99.992 43.9188 99.4816 44.0464 98.9093 44.0464ZM95.8701 46.2504V37.9448H96.4269V39.9284L96.3341 40.984L96.4501 42.0396V46.2504H95.8701ZM98.8745 43.5244C99.3385 43.5244 99.7561 43.42 100.127 43.2112C100.499 42.9947 100.789 42.6931 100.997 42.3064C101.214 41.9197 101.322 41.4751 101.322 40.9724C101.322 40.462 101.214 40.0173 100.997 39.6384C100.789 39.2517 100.499 38.954 100.127 38.7452C99.7561 38.5287 99.3385 38.4204 98.8745 38.4204C98.4105 38.4204 97.9929 38.5287 97.6217 38.7452C97.2582 38.954 96.9682 39.2517 96.7517 39.6384C96.5429 40.0173 96.4385 40.462 96.4385 40.9724C96.4385 41.4751 96.5429 41.9197 96.7517 42.3064C96.9682 42.6931 97.2582 42.9947 97.6217 43.2112C97.9929 43.42 98.4105 43.5244 98.8745 43.5244ZM106.064 44.0464C105.484 44.0464 104.966 43.9149 104.51 43.652C104.061 43.3891 103.702 43.0256 103.431 42.5616C103.168 42.0976 103.037 41.5679 103.037 40.9724C103.037 40.3692 103.168 39.8395 103.431 39.3832C103.702 38.9192 104.061 38.5557 104.51 38.2928C104.966 38.0299 105.484 37.8984 106.064 37.8984C106.644 37.8984 107.162 38.0299 107.619 38.2928C108.075 38.5557 108.435 38.9192 108.697 39.3832C108.96 39.8395 109.092 40.3692 109.092 40.9724C109.092 41.5679 108.96 42.0976 108.697 42.5616C108.435 43.0256 108.075 43.3891 107.619 43.652C107.162 43.9149 106.644 44.0464 106.064 44.0464ZM106.064 43.5244C106.528 43.5244 106.946 43.42 107.317 43.2112C107.688 42.9947 107.978 42.6931 108.187 42.3064C108.396 41.9197 108.5 41.4751 108.5 40.9724C108.5 40.462 108.396 40.0173 108.187 39.6384C107.978 39.2517 107.688 38.954 107.317 38.7452C106.946 38.5287 106.528 38.4204 106.064 38.4204C105.6 38.4204 105.183 38.5287 104.811 38.7452C104.448 38.954 104.158 39.2517 103.941 39.6384C103.733 40.0173 103.628 40.462 103.628 40.9724C103.628 41.4751 103.733 41.9197 103.941 42.3064C104.158 42.6931 104.448 42.9947 104.811 43.2112C105.183 43.42 105.6 43.5244 106.064 43.5244ZM111.904 44L109.608 37.9448H110.164L112.299 43.6752H112.055L114.248 37.9448H114.746L116.927 43.6752H116.672L118.841 37.9448H119.375L117.078 44H116.533L114.398 38.5016H114.584L112.438 44H111.904ZM123.013 44.0464C122.402 44.0464 121.861 43.9149 121.389 43.652C120.925 43.3891 120.558 43.0256 120.287 42.5616C120.024 42.0976 119.893 41.5679 119.893 40.9724C119.893 40.3692 120.017 39.8395 120.264 39.3832C120.519 38.9192 120.867 38.5557 121.308 38.2928C121.749 38.0299 122.244 37.8984 122.793 37.8984C123.342 37.8984 123.833 38.026 124.266 38.2812C124.707 38.5364 125.051 38.896 125.298 39.36C125.554 39.8163 125.681 40.346 125.681 40.9492C125.681 40.9724 125.677 40.9995 125.67 41.0304C125.67 41.0536 125.67 41.0807 125.67 41.1116H120.322V40.6592H125.356L125.124 40.8796C125.132 40.4079 125.032 39.9864 124.823 39.6152C124.622 39.2363 124.347 38.9424 123.999 38.7336C123.651 38.5171 123.249 38.4088 122.793 38.4088C122.344 38.4088 121.942 38.5171 121.586 38.7336C121.238 38.9424 120.964 39.2363 120.763 39.6152C120.562 39.9864 120.461 40.4117 120.461 40.8912V40.9956C120.461 41.4905 120.57 41.9313 120.786 42.318C121.01 42.6969 121.316 42.9947 121.702 43.2112C122.089 43.42 122.53 43.5244 123.025 43.5244C123.412 43.5244 123.771 43.4548 124.104 43.3156C124.444 43.1764 124.73 42.9637 124.962 42.6776L125.298 43.0604C125.036 43.3852 124.703 43.6327 124.301 43.8028C123.906 43.9652 123.477 44.0464 123.013 44.0464ZM127.476 44V37.9448H128.032V39.6036L127.974 39.418C128.145 38.9308 128.431 38.5557 128.833 38.2928C129.235 38.0299 129.738 37.8984 130.341 37.8984V38.4668C130.318 38.4668 130.294 38.4668 130.271 38.4668C130.248 38.4591 130.225 38.4552 130.202 38.4552C129.529 38.4552 129.003 38.6679 128.624 39.0932C128.245 39.5108 128.056 40.0947 128.056 40.8448V44H127.476ZM131.939 44V37.9448H132.519V44H131.939ZM132.229 36.4716C132.097 36.4716 131.985 36.4252 131.892 36.3324C131.8 36.2396 131.753 36.1313 131.753 36.0076C131.753 35.8761 131.8 35.764 131.892 35.6712C131.985 35.5784 132.097 35.532 132.229 35.532C132.368 35.532 132.48 35.5784 132.565 35.6712C132.658 35.7563 132.704 35.8645 132.704 35.996C132.704 36.1275 132.658 36.2396 132.565 36.3324C132.48 36.4252 132.368 36.4716 132.229 36.4716ZM137.921 37.8984C138.416 37.8984 138.846 37.9951 139.209 38.1884C139.58 38.374 139.866 38.6601 140.067 39.0468C140.276 39.4257 140.381 39.8975 140.381 40.462V44H139.801V40.5084C139.801 39.8279 139.627 39.3097 139.279 38.954C138.938 38.5983 138.459 38.4204 137.84 38.4204C137.369 38.4204 136.959 38.5171 136.611 38.7104C136.263 38.9037 135.996 39.1744 135.81 39.5224C135.632 39.8704 135.543 40.288 135.543 40.7752V44H134.963V37.9448H135.52V39.6268L135.439 39.4412C135.625 38.9617 135.93 38.5867 136.355 38.316C136.781 38.0376 137.303 37.8984 137.921 37.8984ZM145.286 46.2968C144.737 46.2968 144.215 46.2117 143.72 46.0416C143.225 45.8715 142.823 45.6356 142.513 45.334L142.827 44.8932C143.128 45.1716 143.488 45.3881 143.905 45.5428C144.331 45.6975 144.787 45.7748 145.274 45.7748C146.086 45.7748 146.682 45.5853 147.061 45.2064C147.447 44.8275 147.641 44.232 147.641 43.42V41.738L147.757 40.8332L147.664 39.9284V37.9448H148.221V43.3504C148.221 44.3635 147.973 45.1059 147.478 45.5776C146.991 46.0571 146.26 46.2968 145.286 46.2968ZM145.123 43.7796C144.551 43.7796 144.037 43.6559 143.581 43.4084C143.132 43.1532 142.772 42.8052 142.502 42.3644C142.239 41.9159 142.107 41.4055 142.107 40.8332C142.107 40.2532 142.239 39.7428 142.502 39.302C142.772 38.8612 143.132 38.5171 143.581 38.2696C144.037 38.0221 144.551 37.8984 145.123 37.8984C145.672 37.8984 146.163 38.0183 146.597 38.258C147.037 38.49 147.385 38.8264 147.641 39.2672C147.896 39.7003 148.023 40.2223 148.023 40.8332C148.023 41.4364 147.896 41.9584 147.641 42.3992C147.385 42.84 147.037 43.1803 146.597 43.42C146.163 43.6597 145.672 43.7796 145.123 43.7796ZM145.17 43.2576C145.657 43.2576 146.086 43.1571 146.457 42.956C146.829 42.7472 147.119 42.4611 147.327 42.0976C147.544 41.7264 147.652 41.3049 147.652 40.8332C147.652 40.3537 147.544 39.9323 147.327 39.5688C147.119 39.2053 146.829 38.9231 146.457 38.722C146.086 38.5209 145.657 38.4204 145.17 38.4204C144.698 38.4204 144.273 38.5209 143.894 38.722C143.523 38.9231 143.229 39.2053 143.012 39.5688C142.803 39.9323 142.699 40.3537 142.699 40.8332C142.699 41.3049 142.803 41.7264 143.012 42.0976C143.229 42.4611 143.523 42.7472 143.894 42.956C144.273 43.1571 144.698 43.2576 145.17 43.2576ZM153.84 44V35.88H157.054C157.912 35.88 158.666 36.054 159.316 36.402C159.965 36.75 160.468 37.2295 160.824 37.8404C161.187 38.4513 161.369 39.1512 161.369 39.94C161.369 40.7288 161.187 41.4287 160.824 42.0396C160.468 42.6505 159.965 43.13 159.316 43.478C158.666 43.826 157.912 44 157.054 44H153.84ZM154.432 43.4664H157.007C157.773 43.4664 158.438 43.3156 159.002 43.014C159.567 42.7124 160.004 42.2987 160.313 41.7728C160.623 41.2392 160.777 40.6283 160.777 39.94C160.777 39.2517 160.623 38.6447 160.313 38.1188C160.004 37.5852 159.567 37.1676 159.002 36.866C158.438 36.5644 157.773 36.4136 157.007 36.4136H154.432V43.4664ZM163.238 44V37.9448H163.818V44H163.238ZM163.528 36.4716C163.397 36.4716 163.285 36.4252 163.192 36.3324C163.099 36.2396 163.053 36.1313 163.053 36.0076C163.053 35.8761 163.099 35.764 163.192 35.6712C163.285 35.5784 163.397 35.532 163.528 35.532C163.668 35.532 163.78 35.5784 163.865 35.6712C163.958 35.7563 164.004 35.8645 164.004 35.996C164.004 36.1275 163.958 36.2396 163.865 36.3324C163.78 36.4252 163.668 36.4716 163.528 36.4716ZM168.78 46.2968C168.231 46.2968 167.709 46.2117 167.214 46.0416C166.719 45.8715 166.317 45.6356 166.008 45.334L166.321 44.8932C166.623 45.1716 166.982 45.3881 167.4 45.5428C167.825 45.6975 168.281 45.7748 168.769 45.7748C169.581 45.7748 170.176 45.5853 170.555 45.2064C170.942 44.8275 171.135 44.232 171.135 43.42V41.738L171.251 40.8332L171.158 39.9284V37.9448H171.715V43.3504C171.715 44.3635 171.468 45.1059 170.973 45.5776C170.485 46.0571 169.755 46.2968 168.78 46.2968ZM168.618 43.7796C168.046 43.7796 167.531 43.6559 167.075 43.4084C166.627 43.1532 166.267 42.8052 165.996 42.3644C165.733 41.9159 165.602 41.4055 165.602 40.8332C165.602 40.2532 165.733 39.7428 165.996 39.302C166.267 38.8612 166.627 38.5171 167.075 38.2696C167.531 38.0221 168.046 37.8984 168.618 37.8984C169.167 37.8984 169.658 38.0183 170.091 38.258C170.532 38.49 170.88 38.8264 171.135 39.2672C171.39 39.7003 171.518 40.2223 171.518 40.8332C171.518 41.4364 171.39 41.9584 171.135 42.3992C170.88 42.84 170.532 43.1803 170.091 43.42C169.658 43.6597 169.167 43.7796 168.618 43.7796ZM168.664 43.2576C169.151 43.2576 169.581 43.1571 169.952 42.956C170.323 42.7472 170.613 42.4611 170.822 42.0976C171.038 41.7264 171.147 41.3049 171.147 40.8332C171.147 40.3537 171.038 39.9323 170.822 39.5688C170.613 39.2053 170.323 38.9231 169.952 38.722C169.581 38.5209 169.151 38.4204 168.664 38.4204C168.193 38.4204 167.767 38.5209 167.388 38.722C167.017 38.9231 166.723 39.2053 166.507 39.5688C166.298 39.9323 166.193 40.3537 166.193 40.8332C166.193 41.3049 166.298 41.7264 166.507 42.0976C166.723 42.4611 167.017 42.7472 167.388 42.956C167.767 43.1571 168.193 43.2576 168.664 43.2576ZM174.17 44V37.9448H174.75V44H174.17ZM174.46 36.4716C174.329 36.4716 174.217 36.4252 174.124 36.3324C174.031 36.2396 173.985 36.1313 173.985 36.0076C173.985 35.8761 174.031 35.764 174.124 35.6712C174.217 35.5784 174.329 35.532 174.46 35.532C174.599 35.532 174.711 35.5784 174.797 35.6712C174.889 35.7563 174.936 35.8645 174.936 35.996C174.936 36.1275 174.889 36.2396 174.797 36.3324C174.711 36.4252 174.599 36.4716 174.46 36.4716ZM178.958 44.0464C178.424 44.0464 178.014 43.8995 177.728 43.6056C177.45 43.3117 177.311 42.9096 177.311 42.3992V36.6224H177.891V42.3412C177.891 42.7279 177.987 43.0256 178.181 43.2344C178.374 43.4432 178.652 43.5476 179.016 43.5476C179.395 43.5476 179.708 43.4355 179.956 43.2112L180.199 43.6172C180.044 43.7641 179.855 43.8724 179.631 43.942C179.414 44.0116 179.19 44.0464 178.958 44.0464ZM176.197 38.4436V37.9448H179.816V38.4436H176.197ZM185.633 44V42.6196L185.61 42.4108V40.1372C185.61 39.5727 185.455 39.1435 185.146 38.8496C184.844 38.5557 184.4 38.4088 183.812 38.4088C183.394 38.4088 183.004 38.4823 182.64 38.6292C182.284 38.7684 181.979 38.9501 181.724 39.1744L181.434 38.7568C181.735 38.4861 182.099 38.2773 182.524 38.1304C182.95 37.9757 183.394 37.8984 183.858 37.8984C184.608 37.8984 185.184 38.0879 185.587 38.4668C185.989 38.8457 186.19 39.4103 186.19 40.1604V44H185.633ZM183.452 44.0464C183.004 44.0464 182.613 43.9768 182.281 43.8376C181.956 43.6907 181.704 43.4857 181.527 43.2228C181.356 42.9599 181.271 42.6583 181.271 42.318C181.271 42.0087 181.341 41.7303 181.48 41.4828C181.627 41.2276 181.867 41.0227 182.199 40.868C182.532 40.7056 182.977 40.6244 183.533 40.6244H185.761V41.0768H183.545C182.919 41.0768 182.478 41.1928 182.223 41.4248C181.975 41.6568 181.851 41.9468 181.851 42.2948C181.851 42.6815 181.998 42.9908 182.292 43.2228C182.586 43.4548 183 43.5708 183.533 43.5708C184.044 43.5708 184.473 43.4548 184.821 43.2228C185.177 42.9908 185.44 42.6544 185.61 42.2136L185.772 42.608C185.61 43.0488 185.331 43.4007 184.937 43.6636C184.55 43.9188 184.055 44.0464 183.452 44.0464ZM188.579 44V35.3928H189.159V44H188.579ZM198.203 44.058C197.599 44.058 197.039 43.9575 196.521 43.7564C196.01 43.5476 195.566 43.2576 195.187 42.8864C194.808 42.5152 194.514 42.0821 194.305 41.5872C194.096 41.0845 193.992 40.5355 193.992 39.94C193.992 39.3445 194.096 38.7993 194.305 38.3044C194.514 37.8017 194.808 37.3648 195.187 36.9936C195.573 36.6224 196.022 36.3363 196.532 36.1352C197.043 35.9264 197.599 35.822 198.203 35.822C198.775 35.822 199.308 35.9148 199.803 36.1004C200.306 36.286 200.735 36.5683 201.091 36.9472L200.72 37.33C200.372 36.9897 199.985 36.7461 199.56 36.5992C199.142 36.4445 198.698 36.3672 198.226 36.3672C197.708 36.3672 197.224 36.4561 196.776 36.634C196.335 36.8119 195.948 37.0632 195.616 37.388C195.291 37.7128 195.036 38.0917 194.85 38.5248C194.672 38.9579 194.583 39.4296 194.583 39.94C194.583 40.4504 194.672 40.9221 194.85 41.3552C195.036 41.7883 195.291 42.1672 195.616 42.492C195.948 42.8168 196.335 43.0681 196.776 43.246C197.224 43.4239 197.708 43.5128 198.226 43.5128C198.698 43.5128 199.142 43.4393 199.56 43.2924C199.985 43.1377 200.372 42.8864 200.72 42.5384L201.091 42.9212C200.735 43.3001 200.306 43.5863 199.803 43.7796C199.308 43.9652 198.775 44.058 198.203 44.058ZM205.845 37.8984C206.34 37.8984 206.769 37.9951 207.133 38.1884C207.504 38.374 207.79 38.6601 207.991 39.0468C208.2 39.4257 208.304 39.8975 208.304 40.462V44H207.724V40.5084C207.724 39.8279 207.55 39.3097 207.202 38.954C206.862 38.5983 206.382 38.4204 205.764 38.4204C205.292 38.4204 204.882 38.5171 204.534 38.7104C204.186 38.9037 203.919 39.1744 203.734 39.5224C203.556 39.8704 203.467 40.288 203.467 40.7752V44H202.887V35.3928H203.467V39.6268L203.363 39.4412C203.548 38.9617 203.854 38.5867 204.279 38.316C204.704 38.0376 205.226 37.8984 205.845 37.8984ZM214.508 44V42.6196L214.485 42.4108V40.1372C214.485 39.5727 214.331 39.1435 214.021 38.8496C213.72 38.5557 213.275 38.4088 212.687 38.4088C212.27 38.4088 211.879 38.4823 211.516 38.6292C211.16 38.7684 210.854 38.9501 210.599 39.1744L210.309 38.7568C210.611 38.4861 210.974 38.2773 211.4 38.1304C211.825 37.9757 212.27 37.8984 212.734 37.8984C213.484 37.8984 214.06 38.0879 214.462 38.4668C214.864 38.8457 215.065 39.4103 215.065 40.1604V44H214.508ZM212.328 44.0464C211.879 44.0464 211.489 43.9768 211.156 43.8376C210.831 43.6907 210.58 43.4857 210.402 43.2228C210.232 42.9599 210.147 42.6583 210.147 42.318C210.147 42.0087 210.216 41.7303 210.356 41.4828C210.503 41.2276 210.742 41.0227 211.075 40.868C211.407 40.7056 211.852 40.6244 212.409 40.6244H214.636V41.0768H212.42C211.794 41.0768 211.353 41.1928 211.098 41.4248C210.851 41.6568 210.727 41.9468 210.727 42.2948C210.727 42.6815 210.874 42.9908 211.168 43.2228C211.461 43.4548 211.875 43.5708 212.409 43.5708C212.919 43.5708 213.348 43.4548 213.696 43.2228C214.052 42.9908 214.315 42.6544 214.485 42.2136L214.648 42.608C214.485 43.0488 214.207 43.4007 213.812 43.6636C213.426 43.9188 212.931 44.0464 212.328 44.0464ZM220.413 37.8984C220.908 37.8984 221.337 37.9951 221.7 38.1884C222.072 38.374 222.358 38.6601 222.559 39.0468C222.768 39.4257 222.872 39.8975 222.872 40.462V44H222.292V40.5084C222.292 39.8279 222.118 39.3097 221.77 38.954C221.43 38.5983 220.95 38.4204 220.332 38.4204C219.86 38.4204 219.45 38.5171 219.102 38.7104C218.754 38.9037 218.487 39.1744 218.302 39.5224C218.124 39.8704 218.035 40.288 218.035 40.7752V44H217.455V37.9448H218.012V39.6268L217.93 39.4412C218.116 38.9617 218.422 38.5867 218.847 38.316C219.272 38.0376 219.794 37.8984 220.413 37.8984ZM227.777 46.2968C227.228 46.2968 226.706 46.2117 226.211 46.0416C225.716 45.8715 225.314 45.6356 225.005 45.334L225.318 44.8932C225.62 45.1716 225.979 45.3881 226.397 45.5428C226.822 45.6975 227.278 45.7748 227.766 45.7748C228.578 45.7748 229.173 45.5853 229.552 45.2064C229.939 44.8275 230.132 44.232 230.132 43.42V41.738L230.248 40.8332L230.155 39.9284V37.9448H230.712V43.3504C230.712 44.3635 230.464 45.1059 229.97 45.5776C229.482 46.0571 228.752 46.2968 227.777 46.2968ZM227.615 43.7796C227.042 43.7796 226.528 43.6559 226.072 43.4084C225.623 43.1532 225.264 42.8052 224.993 42.3644C224.73 41.9159 224.599 41.4055 224.599 40.8332C224.599 40.2532 224.73 39.7428 224.993 39.302C225.264 38.8612 225.623 38.5171 226.072 38.2696C226.528 38.0221 227.042 37.8984 227.615 37.8984C228.164 37.8984 228.655 38.0183 229.088 38.258C229.529 38.49 229.877 38.8264 230.132 39.2672C230.387 39.7003 230.515 40.2223 230.515 40.8332C230.515 41.4364 230.387 41.9584 230.132 42.3992C229.877 42.84 229.529 43.1803 229.088 43.42C228.655 43.6597 228.164 43.7796 227.615 43.7796ZM227.661 43.2576C228.148 43.2576 228.578 43.1571 228.949 42.956C229.32 42.7472 229.61 42.4611 229.819 42.0976C230.035 41.7264 230.144 41.3049 230.144 40.8332C230.144 40.3537 230.035 39.9323 229.819 39.5688C229.61 39.2053 229.32 38.9231 228.949 38.722C228.578 38.5209 228.148 38.4204 227.661 38.4204C227.189 38.4204 226.764 38.5209 226.385 38.722C226.014 38.9231 225.72 39.2053 225.504 39.5688C225.295 39.9323 225.19 40.3537 225.19 40.8332C225.19 41.3049 225.295 41.7264 225.504 42.0976C225.72 42.4611 226.014 42.7472 226.385 42.956C226.764 43.1571 227.189 43.2576 227.661 43.2576ZM235.626 44.0464C235.015 44.0464 234.474 43.9149 234.002 43.652C233.538 43.3891 233.171 43.0256 232.9 42.5616C232.637 42.0976 232.506 41.5679 232.506 40.9724C232.506 40.3692 232.63 39.8395 232.877 39.3832C233.132 38.9192 233.48 38.5557 233.921 38.2928C234.362 38.0299 234.857 37.8984 235.406 37.8984C235.955 37.8984 236.446 38.026 236.879 38.2812C237.32 38.5364 237.664 38.896 237.911 39.36C238.167 39.8163 238.294 40.346 238.294 40.9492C238.294 40.9724 238.29 40.9995 238.283 41.0304C238.283 41.0536 238.283 41.0807 238.283 41.1116H232.935V40.6592H237.969L237.737 40.8796C237.745 40.4079 237.645 39.9864 237.436 39.6152C237.235 39.2363 236.96 38.9424 236.612 38.7336C236.264 38.5171 235.862 38.4088 235.406 38.4088C234.957 38.4088 234.555 38.5171 234.199 38.7336C233.851 38.9424 233.577 39.2363 233.376 39.6152C233.175 39.9864 233.074 40.4117 233.074 40.8912V40.9956C233.074 41.4905 233.182 41.9313 233.399 42.318C233.623 42.6969 233.929 42.9947 234.315 43.2112C234.702 43.42 235.143 43.5244 235.638 43.5244C236.024 43.5244 236.384 43.4548 236.717 43.3156C237.057 43.1764 237.343 42.9637 237.575 42.6776L237.911 43.0604C237.648 43.3852 237.316 43.6327 236.914 43.8028C236.519 43.9652 236.09 44.0464 235.626 44.0464Z" fill="white"/>
<defs>
<linearGradient id="paint0_linear_12_45" x1="0.278821" y1="27.0188" x2="30.4127" y2="27.0188" gradientUnits="userSpaceOnUse">
<stop stop-color="#1F27FF"/>
<stop offset="1" stop-color="#BA03F1"/>
</linearGradient>
<linearGradient id="paint1_linear_12_45" x1="0.279006" y1="39.726" x2="31.2167" y2="39.726" gradientUnits="userSpaceOnUse">
<stop stop-color="#1F56FF"/>
<stop offset="1" stop-color="#00AFFF"/>
</linearGradient>
<linearGradient id="paint2_linear_12_45" x1="23.484" y1="3.2152" x2="42.5491" y2="52.0864" gradientUnits="userSpaceOnUse">
<stop offset="0.0056" stop-color="#FF12F6"/>
<stop offset="1" stop-color="#1F56FF"/>
</linearGradient>
<linearGradient id="paint3_linear_12_45" x1="42.1519" y1="3.24156" x2="61.2169" y2="52.1127" gradientUnits="userSpaceOnUse">
<stop offset="0.0056" stop-color="#FF12F6"/>
<stop offset="1" stop-color="#1F56FF"/>
</linearGradient>
</defs>
</svg>
